<svg id="Layer_2" data-name="Layer 2" xmlns="http://www.w3.org/2000/svg" viewBox="0 0 442.16667 146.2999"><defs><style>.cls-1{fill:#c44c4c;}</style></defs><title>Aroma Logo</title><path class="cls-1" d="M311.45833,241.6849l7.4905-22.47176h-7.4905l1.40457-11.70394h10.29937L360.615,96.78956,409.53765,241.6849H396.89733l-7.4905-22.47176H331.58915l-7.4905,22.47176Zm24.11016-34.1757h49.859L360.615,133.54Z" transform="translate(-311.45833 -96.78956)"/><path class="cls-1" d="M447.80676,177.781a26.62047,26.62047,0,0,0-8.661,5.73518,24.51343,24.51343,0,0,0-5.50109,8.3097,26.20166,26.20166,0,0,0-1.8725,9.83144V241.6849H421.23874v-76.076h10.53347v14.279a30.14013,30.14013,0,0,1,9.59735-10.18246q6.55024-4.56445,17.78988-4.56445v10.53347A29.15,29.15,0,0,0,447.80676,177.781Z" transform="translate(-311.45833 -96.78956)"/><path class="cls-1" d="M675.2109,241.6849H664.67744V197.678q0-11.938-5.14956-17.556-5.15189-5.61788-17.08811-5.618-11.938,0-17.32195,5.969-5.387,5.969-5.38391,17.205V241.6849H609.20044V197.678a32.267,32.267,0,0,0-1.17021-8.661,21.22013,21.22013,0,0,0-3.74551-7.4905,17.36541,17.36541,0,0,0-6.90539-5.14982,27.5618,27.5618,0,0,0-10.88474-1.87275q-10.53347,0-16.38557,6.6713a23.80275,23.80275,0,0,0-5.85158,16.26865v44.241h-10.534v-76.076h10.534v8.661q1.87094-3.27512,6.90539-6.78822,5.03083-3.511,15.33176-3.51116,11.93881,0,18.60959,4.09626,6.6713,4.09846,9.24634,9.48043a25.67468,25.67468,0,0,1,9.59709-9.59735q6.55024-3.9774,18.49216-3.97934a41.81467,41.81467,0,0,1,15.33227,2.45786,26.76541,26.76541,0,0,1,10.06528,6.6713,25.69254,25.69254,0,0,1,5.61826,9.83119,39.80711,39.80711,0,0,1,1.75532,11.938Z" transform="translate(-311.45833 -96.78956)"/><path class="cls-1" d="M710.67167,166.31118q5.49721-2.33693,14.16154-2.34068,13.809,0,21.30129,7.37358,7.48921,7.3732,7.4905,18.60933V241.6849H743.09153v-8.19278q-2.34275,3.28094-7.84177,6.43721-5.50264,3.15989-15.56611,3.16014a33.457,33.457,0,0,1-13.57644-2.575,28.53915,28.53915,0,0,1-9.71453-6.78822,29.14229,29.14229,0,0,1-5.8521-9.48017,30.53014,30.53014,0,0,1-1.98967-10.88474,29.95965,29.95965,0,0,1,2.10711-11.00166,28.5828,28.5828,0,0,1,6.20285-9.59735,31.04226,31.04226,0,0,1,22.82277-9.36326,33.23255,33.23255,0,0,1,14.51281,2.926,20.17176,20.17176,0,0,1,8.89507,7.60768v-3.74551a14.46022,14.46022,0,0,0-5.03264-11.11857q-5.03626-4.56484-13.22568-4.56471a23.96952,23.96952,0,0,0-9.714,1.63866,33.44513,33.44513,0,0,0-6.90539,4.21344l-6.32029-8.42688A27.47966,27.47966,0,0,1,710.67167,166.31118Zm-9.83144,54.07243a18.82788,18.82788,0,0,0,3.86243,6.32029,19.90361,19.90361,0,0,0,6.32029,4.56445,20.77869,20.77869,0,0,0,8.89507,1.75558,22.06553,22.06553,0,0,0,8.89455-1.63866,18.52281,18.52281,0,0,0,6.32029-4.44727,18.945,18.945,0,0,0,3.86243-6.32029,21.09019,21.09019,0,0,0,0-14.51281,18.945,18.945,0,0,0-3.86243-6.32029,18.57637,18.57637,0,0,0-6.32029-4.44753,24.964,24.964,0,0,0-17.78962,0,18.50635,18.50635,0,0,0-6.32029,4.44753,18.82788,18.82788,0,0,0-3.86243,6.32029,20.90377,20.90377,0,0,0-1.28765,7.25641A20.25527,20.25527,0,0,0,700.84022,220.38361Z" transform="translate(-311.45833 -96.78956)"/><path class="cls-1" d="M528.51018,169.71134a40.68423,40.68423,0,0,0-25.93548-8.82719c-36.508-16.18687-16.81071-51.91881-16.81071-51.91881-32.96265,3.4881-47.80624,25.37872-47.80624,25.37872,38.99579,8.19018,35.35936,34.42231,31.92511,45.4617a40.51055,40.51055,0,0,0-3.99819,8.973,41.01209,41.01209,0,0,0-1.67462,15.06737,38.77423,38.77423,0,0,0,14.37833,27.08465,40.84233,40.84233,0,0,0,28.486,8.72951A38.77492,38.77492,0,0,0,534.159,225.28195a40.84,40.84,0,0,0,8.72951-28.486,38.77767,38.77767,0,0,0-14.37833-27.08465Zm6.77,27.88083a32.96448,32.96448,0,0,1-1.31608,12.04971,32.49365,32.49365,0,0,1-5.77453,10.7783,30.62723,30.62723,0,0,1-9.69347,8.05633,30.32142,30.32142,0,0,1-12.21785,3.57565,32.3307,32.3307,0,0,1-22.7678-6.97719,30.32089,30.32089,0,0,1-8.1166-9.80714,30.627,30.627,0,0,1-3.51535-12.10412,32.49584,32.49584,0,0,1,1.25587-12.16314,30.24891,30.24891,0,0,1,1.3148-3.471l-.01384.00776s.042-.088.1008-.21417q.05294-.11642.10682-.2325c.85522-1.886,4.10205-9.57174,4.118-17.604.00152-31.19987-27.02864-38.96415-27.02864-38.96415a39.8318,39.8318,0,0,1,22.89107-12.1521c-7.03375,27.01425,12.146,41.19732,16.92735,44.25444,0,0,5.4374,4.9709,15.34394,6.08558.05463.00555.10873.01256.16329.01835.261.02812.51157.06523.77866.08776l-.04267.02389a30.85148,30.85148,0,0,1,5.07591,1.06593,32.55856,32.55856,0,0,1,10.77839,5.77455,30.6899,30.6899,0,0,1,8.05654,9.69336A30.38118,30.38118,0,0,1,535.28016,197.59217Z" transform="translate(-311.45833 -96.78956)"/></svg>